<svg width="158" height="158" viewBox="0 0 158 158" fill="none" xmlns="http://www.w3.org/2000/svg">
<circle cx="79" cy="79" r="77" stroke="white" stroke-width="4"/>
<path d="M54.06 41V118H46.14V48.04H27.99V41H54.06ZM125.046 110.96V118H71.0361V112.39L103.046 81.04C107.079 77.08 109.793 73.67 111.186 70.81C112.653 67.8767 113.386 64.9433 113.386 62.01C113.386 57.4633 111.809 53.9433 108.656 51.45C105.576 48.8833 101.139 47.6 95.3461 47.6C86.3261 47.6 79.3228 50.46 74.3361 56.18L68.7261 51.34C71.7328 47.82 75.5461 45.1067 80.1661 43.2C84.8594 41.2933 90.1394 40.34 96.0061 40.34C103.853 40.34 110.049 42.21 114.596 45.95C119.216 49.6167 121.526 54.6767 121.526 61.13C121.526 65.09 120.646 68.9033 118.886 72.57C117.126 76.2367 113.789 80.4533 108.876 85.22L82.6961 110.96H125.046Z" fill="white"/>
</svg>
